<svg xmlns="http://www.w3.org/2000/svg" xmlns:xlink="http://www.w3.org/1999/xlink" width="500" height="269"
     viewBox="0 0 500 269">
    <defs>
        <clipPath id="clip-YouCan_pay_logo">
            <rect width="500" height="269"/>
        </clipPath>
    </defs>
    <g id="YouCan_pay_logo" clip-path="url(#clip-YouCan_pay_logo)">
        <g id="Group_13" transform="translate(-1246.194 -275.051)">
            <g id="Group_9" transform="translate(1247.597 314.654)">
                <path id="Path_7"
                      d="M1302.033,372.682v31.179h-20.367v-31.43l-34.07-56.575h21.624l23.509,39.1,23.511-39.1h19.989Z"
                      transform="translate(-1247.597 -314.348)" fill="#4b83fc"/>
                <path id="Path_8"
                      d="M1313.932,366.113c0-20.367,15.714-34.825,37.213-34.825s37.087,14.458,37.087,34.825-15.589,34.825-37.087,34.825S1313.932,386.48,1313.932,366.113Zm54.436,0c0-11.692-7.417-18.733-17.224-18.733s-17.349,7.041-17.349,18.733,7.543,18.733,17.349,18.733S1368.368,377.805,1368.368,366.113Z"
                      transform="translate(-1230.706 -310.418)" fill="#4b83fc"/>
                <path id="Path_9"
                      d="M1451.79,332.09v67.638h-18.606v-8.046c-5.155,5.909-12.7,9.052-21,9.052-16.972,0-28.916-9.554-28.916-30.425V332.09h19.612v35.327c0,11.316,5.03,16.344,13.7,16.344,9.052,0,15.589-5.783,15.589-18.23V332.09Z"
                      transform="translate(-1213.049 -310.214)" fill="#4b83fc"/>
                <path id="Path_10"
                      d="M1449.1,360.166c0-26.528,20.368-45.512,47.775-45.512,15.211,0,27.909,5.532,36.206,15.59l-13.075,12.068C1514.1,335.524,1506.685,332,1497.883,332c-16.468,0-28.16,11.566-28.16,28.163s11.692,28.16,28.16,28.16c8.8,0,16.219-3.521,22.128-10.434l13.075,12.068c-8.3,10.183-21,15.714-36.333,15.714C1469.472,405.676,1449.1,386.692,1449.1,360.166Z"
                      transform="translate(-1196.286 -314.654)" fill="#4b83fc"/>
                <path id="Path_11"
                      d="M1586.195,361.335v38.6h-18.355v-8.424c-3.646,6.16-10.686,9.43-20.617,9.43-15.841,0-25.271-8.8-25.271-20.492,0-11.944,8.424-20.242,29.042-20.242h15.589c0-8.422-5.029-13.326-15.589-13.326-7.167,0-14.584,2.388-19.487,6.286l-7.041-13.7c7.417-5.281,18.355-8.173,29.168-8.173C1574.252,331.288,1586.195,340.843,1586.195,361.335Zm-19.613,17.224v-6.914H1553.13c-9.178,0-12.068,3.394-12.068,7.921,0,4.9,4.148,8.171,11.063,8.171C1558.662,387.737,1564.32,384.719,1566.582,378.559Z"
                      transform="translate(-1177.736 -310.418)" fill="#4b83fc"/>
                <path id="Path_12"
                      d="M1656.43,361.21v38.722h-19.612v-35.7c0-10.938-5.03-15.967-13.7-15.967-9.429,0-16.217,5.784-16.217,18.23v33.441h-19.613V332.294h18.732v7.921c5.281-5.783,13.2-8.927,22.379-8.927C1644.359,331.288,1656.43,340.591,1656.43,361.21Z"
                      transform="translate(-1161.1 -310.418)" fill="#4b83fc"/>
            </g>
            <g id="Group_12" transform="translate(1576.818 426.751)">
                <rect id="Rectangle_5" width="169.376" height="79.042" rx="10.597" fill="#4b83fc"/>
                <g id="Group_11" transform="translate(27.926 12.977)">
                    <g id="Group_10">
                        <path id="Path_13"
                              d="M1571.326,431.071c0,10.272-7.53,16.66-19.566,16.66h-9.076v12.711h-10.426v-46.1h19.5C1563.8,414.343,1571.326,420.732,1571.326,431.071Zm-10.556,0c0-5.071-3.217-8.036-9.589-8.036h-8.5v16h8.5C1557.553,439.038,1560.77,436.075,1560.77,431.071Z"
                              transform="translate(-1532.258 -414.343)" fill="#fff"/>
                        <path id="Path_14"
                              d="M1599.567,438.167v20.217h-9.4v-4.413c-1.867,3.227-5.471,4.94-10.557,4.94-8.109,0-12.935-4.61-12.935-10.735,0-6.257,4.311-10.6,14.866-10.6h7.982c0-4.413-2.575-6.98-7.982-6.98a16.4,16.4,0,0,0-9.975,3.292l-3.6-7.179c3.8-2.765,9.4-4.281,14.933-4.281C1593.453,422.426,1599.567,427.432,1599.567,438.167Zm-10.041,9.021v-3.622h-6.888c-4.7,0-6.178,1.779-6.178,4.149,0,2.57,2.124,4.281,5.663,4.281C1585.471,452,1588.368,450.415,1589.526,447.188Z"
                              transform="translate(-1523.493 -412.285)" fill="#fff"/>
                        <path id="Path_15"
                              d="M1635.05,422.846l-15.641,37.6c-3.347,8.562-8.11,11.13-14.353,11.13-3.541,0-7.4-1.186-9.655-3.227l3.669-7.31a8.791,8.791,0,0,0,5.665,2.238c2.768,0,4.311-1.251,5.662-4.411l.13-.33-15-35.694h10.362l9.718,24.038,9.784-24.038Z"
                              transform="translate(-1516.179 -412.178)" fill="#fff"/>
                    </g>
                </g>
            </g>
        </g>
    </g>
</svg>
